<svg xmlns="http://www.w3.org/2000/svg" viewBox="0 0 1440 900" fill="#010000" fill-opacity="0.07">
  <!--/ IDEAS /-->
  <path d="M451.1,139.2V290h22.8V139.2H451.1z"/>
  <path d="M541.3,290c15.3,0,27.1-1.4,35.4-4.2c8.9-2.8,17.4-7.8,25.6-14.9c16.2-14.3,24.3-33.1,24.3-56.3c0-23.1-7.8-41.8-23.3-56 c-7.7-7-16.2-12-25.7-14.9c-8.8-3-20.8-4.5-35.9-4.5H510V290H541.3z M532.8,160.6H543c19.4,0,34.1,4.6,44,13.8 c11.1,10.3,16.6,23.7,16.6,40.2c0,16.4-5.6,29.7-16.8,39.9c-5.5,4.9-11.6,8.6-18.4,10.8c-6.8,2.1-15.3,3.2-25.5,3.2h-10.3V160.6z"/>
  <path d="M738.5,139.2h-83.2V290h83.2v-21.4H678v-50.4h58.7v-21.4H678v-36.2h60.4V139.2z"/>
  <path d="M872.7,290h24.9l-72-160.3L751.1,290h24.5l16.8-36.6h64.6L872.7,290z M801.8,232l23.4-51.3l22.4,51.3H801.8z"/>
  <path d="M961,136.3c-12.9,0-23.7,3.8-32.3,11.5c-8.7,7.6-13,17.1-13,28.4c0,16.8,10.3,29.5,31,38.3l14.6,6.1c3.8,1.6,7,3.3,9.8,5.1 c2.7,1.8,5,3.7,6.7,5.8c1.7,2,3,4.3,3.8,6.7c0.8,2.4,1.2,5.1,1.2,8.1c0,7.3-2.3,13.3-7,18.1c-4.7,4.7-10.6,7.1-17.7,7.1 c-9,0-15.8-3.3-20.5-9.8c-2.6-3.4-4.4-9.5-5.5-18.4l-23,5.1c2.1,14.1,7.3,25,15.7,32.8c8.5,7.8,19.3,11.7,32.4,11.7 c13.8,0,25.4-4.6,34.7-13.7c9.2-9.1,13.9-20.5,13.9-34.4c0-10.4-2.8-19.1-8.5-26.2c-5.7-7.1-14.6-13.2-26.9-18.1l-15-6.2 c-10.9-4.5-16.4-10.4-16.4-17.8c0-5.3,2.1-9.8,6.2-13.3c4.2-3.6,9.4-5.4,15.7-5.4c5.1,0,9.3,1,12.6,3.1c3.1,1.8,6.4,5.7,9.9,11.7 l18.5-10.9C992,144.7,978.4,136.3,961,136.3L961,136.3z"/>

  <!--/ NEVER /-->
  <path d="M435.5,530V424.4l110,114.7v-160h-22.8V484l-110-115v161H435.5z"/>
  <path d="M664.8,379.2h-83.2V530h83.2v-21.4h-60.4v-50.4H663v-21.4h-58.7v-36.2h60.4V379.2z"/>
  <path d="M677.4,379.2l66.1,162.1l67.7-162.1h-24.9L744,483.7l-41.7-104.5H677.4z"/>
  <path d="M913.1,379.2h-83.2V530h83.2v-21.4h-60.4v-50.4h58.7v-21.4h-58.7v-36.2h60.4V379.2z"/>
  <path d="M1018.3,451c6.1-7.7,9.2-16.9,9.2-27.5c0-13.7-4.9-24.7-14.6-33c-8.9-7.5-23.2-11.2-43.2-11.2H943V530h22.8v-61.7h4.1 l43.1,61.7h27.8l-46.7-64.3C1004.1,463.6,1012.2,458.7,1018.3,451z M965.8,400.6h8.1c21,0,31.4,7.7,31.4,23.1 c0,16.5-10.8,24.7-32.3,24.7h-7.2V400.6z"/>

  <!--/ CEASE /-->
  <path d="M494.7,616.3c-24.8,0-45,9.2-60.6,27.6c-12.7,15-19,32.2-19,51.4c0,21.4,7.6,39.7,22.8,54.9c15.2,15,33.6,22.6,55.2,22.6 c14.3,0,28-3.7,41-11.1v-27.5c-3.7,3.1-7.2,5.8-10.6,8c-3.4,2.2-6.6,4-9.7,5.3c-5.6,2.6-12.4,3.9-20.4,3.9 c-15.5,0-28.6-5.4-39.3-16.3c-10.7-10.9-16-24.2-16-40c0-16,5.3-29.6,16-40.6c10.6-11.1,23.7-16.7,39.2-16.7 c14.1,0,27.7,5.5,40.8,16.5v-26.9C521.3,620,508.2,616.3,494.7,616.3L494.7,616.3z"/>
  <path d="M645.9,619.2h-83.2V770h83.2v-21.4h-60.4v-50.4h58.7v-21.4h-58.7v-36.2h60.4V619.2z"/>
  <path d="M780.2,770h24.9l-72-160.3L658.5,770H683l16.8-36.6h64.6L780.2,770z M709.3,712l23.4-51.3l22.4,51.3H709.3z"/>
  <path d="M868.4,616.3c-12.9,0-23.7,3.8-32.3,11.5c-8.7,7.6-13,17.1-13,28.4c0,16.8,10.3,29.5,31,38.3l14.6,6.1 c3.8,1.6,7,3.3,9.8,5.1c2.7,1.8,5,3.7,6.7,5.8c1.7,2,3,4.3,3.8,6.7c0.8,2.4,1.2,5.1,1.2,8.1c0,7.3-2.3,13.3-7,18.1 c-4.7,4.7-10.6,7.1-17.7,7.1c-9,0-15.8-3.3-20.5-9.8c-2.6-3.4-4.4-9.5-5.5-18.4l-23,5.1c2.1,14.1,7.3,25,15.7,32.8 c8.5,7.8,19.3,11.7,32.4,11.7c13.8,0,25.4-4.6,34.7-13.7c9.2-9.1,13.9-20.5,13.9-34.4c0-10.4-2.8-19.1-8.5-26.2 c-5.7-7.1-14.6-13.2-26.9-18.1l-15-6.2c-10.9-4.5-16.4-10.4-16.4-17.8c0-5.3,2.1-9.8,6.2-13.3c4.2-3.6,9.4-5.4,15.7-5.4 c5.1,0,9.3,1,12.6,3.1c3.1,1.8,6.4,5.7,9.9,11.7l18.5-10.9C899.4,624.7,885.8,616.3,868.4,616.3L868.4,616.3z"/>
  <path d="M1023.7,619.2h-83.2V770h83.2v-21.4h-60.4v-50.4h58.7v-21.4h-58.7v-36.2h60.4V619.2z"/>
  <!--/ We've got some pretty dope shit planned, stay tuned /-->
</svg>
